<svg width="1921" height="298" fill="none" xmlns="http://www.w3.org/2000/svg"><g clip-path="url(#a)"><path d="M549.41 244.75 321 258.52v-23.58L520.66 219l28.75 25.75Z" fill="url(#b)"/><path d="m681.76 236.77-132.35 7.98L520.66 219l161.1 17.77Z" fill="url(#c)"/><path d="m844.31 226.97-148.6 71.85H321v-40.3l228.41-13.77 132.35-7.98 162.55-9.8Z" fill="url(#d)"/><path d="m1038.8 243.94-.58.06-122.08 54.82H695.71l148.6-71.85 194.49 16.97Z" fill="url(#e)"/><path d="m1178.31 256.12-139.49-12.18 122.52-12.06 16.97 24.24Z" fill="url(#f)"/><path d="M1256 247.69v15.2l-77.69-6.77-16.97-24.24 94.66 15.81Z" fill="url(#g)"/><path d="M1256 262.89v35.93H916.14L1038.22 244l.58-.06h.02l139.49 12.18 77.69 6.77Z" fill="url(#h)"/><path d="M1758.55 244.75 1921 259l-142-40-20.45 25.75Z" fill="url(#i)"/><path d="m1664.42 236.77 94.13 7.98L1779 219l-114.58 17.77Z" fill="url(#j)"/><path d="m1548.8 226.97 105.69 71.85H1921V259l-162.45-14.25-94.13-7.98-115.62-9.8Z" fill="url(#k)"/><path d="m1410.48 243.94.41.06 86.83 54.82h156.77l-105.69-71.85-138.32 16.97Z" fill="url(#l)"/><path d="m1311.26 256.12 99.2-12.18-87.14-12.06-12.06 24.24Z" fill="url(#m)"/><path d="M1256 247.69v15.2l55.26-6.77 12.06-24.24-67.32 15.81Z" fill="url(#n)"/><path d="M1256 262.89v35.93h241.72L1410.89 244l-.41-.06h-.02l-99.2 12.18-55.26 6.77Z" fill="url(#o)"/><path d="M243.34 244.75 322 258.52v-23.58L253.24 219l-9.9 25.75Z" fill="url(#p)"/><path d="m197.76 236.77 45.58 7.98 9.9-25.75-55.48 17.77Z" fill="url(#q)"/><path d="m141.78 226.97 51.17 71.85H322v-40.3l-78.66-13.77-45.58-7.98-55.98-9.8Z" fill="url(#r)"/><path d="m74.8 243.94.2.06 42.04 54.82h75.91l-51.17-71.85-66.98 16.97Z" fill="url(#s)"/><path d="m26.76 256.12 48.03-12.18-42.19-12.06-5.84 24.24Z" fill="url(#t)"/><path d="M0 245v17.89l26.76-6.77 5.84-24.24L0 245Z" fill="url(#u)"/><path d="M0 262.89v35.93h117.04L75 244l-.2-.06h-.01l-48.03 12.18L0 262.89Z" fill="url(#v)"/></g><path d="M872.371 129.842v36.548h15.245V93.536h26.955c5.703 0 10.129 1.215 13.27 3.655 3.14 2.44 4.71 6.054 4.71 10.843 0 4.465-1.611 8.008-4.832 10.661-3.221 2.642-7.567 3.968-13.017 3.968h-12.753l9.522 13.506 21.323 30.231h17.98l-23.43-32.833c3.059-.83 5.845-2.004 8.367-3.533a25.866 25.866 0 0 0 6.514-5.579c1.823-2.186 3.241-4.707 4.275-7.562 1.033-2.855 1.549-6.095 1.549-9.73 0-4.212-.739-8.028-2.228-11.46-1.489-3.433-3.616-6.318-6.382-8.677-2.765-2.349-6.159-4.171-10.17-5.447-4.011-1.275-8.489-1.923-13.452-1.923h-43.436v36.052h-41.41V79.656h-15.246v86.734h15.246v-36.548h41.41-.01Z" fill="#311F4C"/><path fill-rule="evenodd" clip-rule="evenodd" d="M774.578 123.028c0-59.966 48.663-108.603 108.661-108.603 59.998 0 108.661 48.637 108.661 108.603 0 59.966-48.663 108.603-108.661 108.603-59.998 0-108.661-48.637-108.661-108.603Zm230.752 0C1005.33 55.641 950.652 1 883.239 1S761.146 55.65 761.146 123.028c0 67.377 54.68 122.028 122.093 122.028 67.413 0 122.091-54.651 122.091-122.028Z" fill="#311F4C"/><path d="M644.047 104.197v62.193h15.245V79.656h-16.238l-26.408 41.013-26.398-41.013H574v86.734h15.002v-61.95l27.148 40.639h.496l27.401-40.882ZM1036.23 102.334c0-2.896 1.23-5.346 3.72-7.37 2.48-2.025 5.94-3.038 10.41-3.038 3.97 0 7.89.76 11.78 2.288 3.88 1.529 7.81 3.736 11.78 6.632l8.18-11.522c-4.46-3.553-9.23-6.257-14.32-8.12-5.08-1.862-10.81-2.784-17.17-2.784-4.29 0-8.26.598-11.9 1.792-3.64 1.195-6.76 2.916-9.36 5.144a24.25 24.25 0 0 0-6.14 7.988c-1.49 3.098-2.23 6.55-2.23 10.347 0 4.049.64 7.471 1.93 10.286 1.27 2.804 3.14 5.204 5.58 7.188s5.46 3.635 9.04 4.961c3.6 1.326 7.71 2.521 12.34 3.594 4.05.992 7.34 1.944 9.86 2.855 2.52.911 4.51 1.883 5.94 2.916 1.45 1.033 2.45 2.166 2.98 3.412.54 1.235.81 2.642.81 4.211 0 3.382-1.38 6.075-4.15 8.049-2.77 1.985-6.51 2.977-11.22 2.977-5.45 0-10.34-.972-14.63-2.916-4.3-1.944-8.55-4.728-12.77-8.363l-9.18 10.904c5.2 4.708 10.87 8.201 16.99 10.469 6.11 2.268 12.52 3.412 19.21 3.412 4.55 0 8.72-.577 12.52-1.732 3.8-1.154 7.07-2.855 9.8-5.082 2.72-2.227 4.85-4.961 6.38-8.18 1.53-3.22 2.29-6.895 2.29-11.026 0-3.634-.6-6.793-1.79-9.476-1.2-2.683-2.96-5.042-5.27-7.067-2.31-2.025-5.23-3.736-8.74-5.143-3.52-1.407-7.54-2.683-12.09-3.837-4.13-.992-7.55-1.944-10.23-2.855-2.68-.911-4.79-1.903-6.32-2.977-1.53-1.073-2.58-2.227-3.16-3.472-.58-1.235-.87-2.724-.87-4.465ZM1198.76 166.39h60.87v-13.87H1214V79.655h-15.24v86.735ZM1323.6 93.161l-51.2 61.961v11.268h71.04v-13.506h-51.2l51.2-61.95V79.656h-69.43V93.16h49.59ZM746.569 152.763h-64.961v13.627h64.961v-13.627ZM746.569 116.214h-64.961v13.628h64.961v-13.628ZM746.569 79.656h-64.961v13.627h64.961V79.656Z" fill="#015C8D"/><path fill-rule="evenodd" clip-rule="evenodd" d="m1123.51 131.947 14.88-34.696 15 34.696 5.57 13.506 8.8 20.937h16.12l-38.18-87.352h-14.13l-38.19 87.352H1109l8.92-20.937 5.59-13.506ZM778.478 197.593H574v4.921h208.165a124.313 124.313 0 0 1-3.687-4.921ZM989.074 197.593a127.383 127.383 0 0 1-2.735 4.921h36.361v-4.921h-33.626Z" fill="#015C8D"/><path d="M1047.82 186.487v21.97h-1.6v-10.459h-14.7v10.459h-1.6v-21.97h1.6v10.104h14.7v-10.104h1.6ZM1069.11 208.457l-5.25-7.341c-.69.092-1.38.152-2.13.152h-6.29v7.189h-1.6v-21.97h7.89c5.53 0 8.85 2.764 8.85 7.411 0 3.483-1.89 5.902-5.15 6.874l5.5 7.695h-1.82v-.01Zm-7.38-8.606c4.71 0 7.22-2.197 7.22-5.963 0-3.767-2.51-5.964-7.22-5.964h-6.29v11.927h6.29ZM1081.25 186.487h8.71c6.96 0 11.68 4.586 11.68 10.985 0 6.398-4.72 10.985-11.68 10.985h-8.71v-21.97Zm8.57 20.532c6.22 0 10.21-3.959 10.21-9.547 0-5.589-3.99-9.548-10.21-9.548h-6.97v19.085h6.97v.01ZM1105.56 186.487h1.6v21.97h-1.6v-21.97ZM1128.89 197.563h1.54v8.221c-1.97 1.883-4.83 2.824-7.85 2.824-6.62 0-11.49-4.738-11.49-11.146 0-6.409 4.87-11.147 11.52-11.147 3.18 0 5.97 1.002 7.92 3.017l-1.01 1.063c-1.91-1.883-4.21-2.602-6.88-2.602-5.71 0-9.95 4.141-9.95 9.669 0 5.527 4.24 9.668 9.95 9.668 2.32 0 4.46-.567 6.25-2.004v-7.563ZM1135.83 186.487h1.6v21.97h-1.6v-21.97ZM1147.66 187.924h-7.91v-1.447h17.44v1.447h-7.91v20.532h-1.61v-20.532h-.01ZM1172.01 202.271h-12.76l-2.79 6.186h-1.73l10.11-21.97h1.6l10.11 21.97h-1.74l-2.82-6.186h.02Zm-.6-1.347-5.78-12.686-5.75 12.686h11.53ZM1178.92 186.487h1.6v20.532h12.66v1.448h-14.26v-21.98ZM1231.49 186.487l-7.45 21.97h-1.69l-6.82-19.712-6.84 19.712h-1.7l-7.47-21.97h1.69l6.69 19.773 6.87-19.773h1.54l6.85 19.803 6.76-19.803h1.57ZM1234.47 186.487h1.6v21.97h-1.6v-21.97ZM1257.36 208.457l-5.25-7.341c-.69.092-1.38.152-2.14.152h-6.28v7.189h-1.6v-21.97h7.88c5.54 0 8.86 2.764 8.86 7.411 0 3.483-1.89 5.902-5.15 6.874l5.5 7.695h-1.82v-.01Zm-7.39-8.606c4.71 0 7.23-2.197 7.23-5.963 0-3.767-2.52-5.964-7.23-5.964h-6.28v11.927h6.28ZM1269.61 197.634l-4.94 5.052v5.781h-1.6v-21.97h1.6v14.123l13.73-14.123h1.94l-9.67 9.982 10.33 11.988h-1.94l-9.45-10.833Z" fill="#015C8D"/><path d="m1280.81 205.632.72-1.195c1.51 1.569 4.3 2.764 7.25 2.764 4.4 0 6.34-1.913 6.34-4.303 0-6.591-13.72-2.632-13.72-10.731 0-3.109 2.39-5.842 7.79-5.842 2.42 0 4.93.749 6.62 1.974l-.6 1.286c-1.82-1.256-4.05-1.853-6.02-1.853-4.28 0-6.19 1.974-6.19 4.394 0 6.591 13.72 2.703 13.72 10.671 0 3.108-2.48 5.811-7.91 5.811-3.26 0-6.41-1.225-8.01-2.986l.01.01ZM1314.13 202.271h-12.76l-2.79 6.186h-1.74l10.11-21.97h1.6l10.11 21.97h-1.73l-2.82-6.186h.02Zm-.6-1.347-5.79-12.686-5.74 12.686h11.53ZM1341.83 208.457l-.03-18.801-9.2 15.885h-.78l-9.19-15.825v18.741h-1.58v-21.97h1.35l9.84 16.978 9.82-16.978h1.32l.03 21.97h-1.58ZM814.559 251.606l-78.019-13.981-4.883-32.499 82.902 46.48Z" fill="#015C8D"/><path d="M736.54 237.625 710 183.247l21.657 21.879 4.883 32.499Z" fill="#311F4C"/><path d="m747.51 190.243-7.07 12.686-8.783 2.197L710 183.247l37.51 6.996Z" fill="#015C8D"/><path d="M764.741 159.344 752.96 199.8l-12.52 3.129 7.07-12.686 17.231-30.899Z" fill="#311F4C"/><path d="M788.454 190.942 752.96 199.8l11.781-40.456 23.713 31.598Z" fill="#FACA40"/><path d="m870.738 170.379-56.179 81.227-82.902-46.48 8.783-2.197 12.52-3.129 35.495-8.858 82.283-20.563Z" fill="#A7D5C1"/><defs><linearGradient id="b" x1="321" y1="238.76" x2="549.41" y2="238.76" gradientUnits="userSpaceOnUse"><stop stop-color="#005C8C"/><stop offset=".06" stop-color="#055787"/><stop offset=".42" stop-color="#1E4171"/><stop offset=".74" stop-color="#2D3363"/><stop offset="1" stop-color="#332F5F"/></linearGradient><linearGradient id="c" x1="601.21" y1="244.75" x2="601.21" y2="219" gradientUnits="userSpaceOnUse"><stop stop-color="#301F4D"/><stop offset="1" stop-color="#005C8C"/></linearGradient><linearGradient id="d" x1="582.66" y1="298.82" x2="582.66" y2="226.97" gradientUnits="userSpaceOnUse"><stop stop-color="#301F4D"/><stop offset="1" stop-color="#005C8C"/></linearGradient><linearGradient id="e" x1="893.04" y1="371.33" x2="853.85" y2="219.4" gradientUnits="userSpaceOnUse"><stop stop-color="#025582"/><stop offset="1" stop-color="#332F5F"/></linearGradient><linearGradient id="f" x1="1108.56" y1="256.12" x2="1108.56" y2="231.88" gradientUnits="userSpaceOnUse"><stop stop-color="#301F4D"/><stop offset="1" stop-color="#005C8C"/></linearGradient><linearGradient id="g" x1="1161.34" y1="247.38" x2="1256" y2="247.38" gradientUnits="userSpaceOnUse"><stop stop-color="#005C8C"/><stop offset=".51" stop-color="#015A8A"/><stop offset=".7" stop-color="#085484"/><stop offset=".83" stop-color="#144979"/><stop offset=".94" stop-color="#253B6B"/><stop offset="1" stop-color="#332F5F"/></linearGradient><linearGradient id="h" x1="1086.07" y1="298.82" x2="1086.07" y2="243.94" gradientUnits="userSpaceOnUse"><stop stop-color="#301F4D"/><stop offset="1" stop-color="#005C8C"/></linearGradient><linearGradient id="i" x1="1921" y1="238.76" x2="1758.54" y2="238.76" gradientUnits="userSpaceOnUse"><stop stop-color="#005C8C"/><stop offset=".06" stop-color="#055787"/><stop offset=".42" stop-color="#1E4171"/><stop offset=".74" stop-color="#2D3363"/><stop offset="1" stop-color="#332F5F"/></linearGradient><linearGradient id="j" x1="1721.71" y1="244.75" x2="1721.71" y2="219" gradientUnits="userSpaceOnUse"><stop stop-color="#301F4D"/><stop offset="1" stop-color="#005C8C"/></linearGradient><linearGradient id="k" x1="1734.9" y1="298.82" x2="1734.9" y2="226.97" gradientUnits="userSpaceOnUse"><stop stop-color="#301F4D"/><stop offset="1" stop-color="#005C8C"/></linearGradient><linearGradient id="l" x1="1508.53" y1="364.23" x2="1545.4" y2="221.29" gradientUnits="userSpaceOnUse"><stop stop-color="#025582"/><stop offset="1" stop-color="#332F5F"/></linearGradient><linearGradient id="m" x1="1360.86" y1="256.12" x2="1360.86" y2="231.88" gradientUnits="userSpaceOnUse"><stop stop-color="#301F4D"/><stop offset="1" stop-color="#005C8C"/></linearGradient><linearGradient id="n" x1="1323.32" y1="247.38" x2="1256" y2="247.38" gradientUnits="userSpaceOnUse"><stop stop-color="#005C8C"/><stop offset=".51" stop-color="#015A8A"/><stop offset=".7" stop-color="#085484"/><stop offset=".83" stop-color="#144979"/><stop offset=".94" stop-color="#253B6B"/><stop offset="1" stop-color="#332F5F"/></linearGradient><linearGradient id="o" x1="1376.86" y1="298.82" x2="1376.86" y2="243.94" gradientUnits="userSpaceOnUse"><stop stop-color="#301F4D"/><stop offset="1" stop-color="#005C8C"/></linearGradient><linearGradient id="p" x1="322" y1="238.76" x2="243.33" y2="238.76" gradientUnits="userSpaceOnUse"><stop stop-color="#005C8C"/><stop offset=".06" stop-color="#055787"/><stop offset=".42" stop-color="#1E4171"/><stop offset=".74" stop-color="#2D3363"/><stop offset="1" stop-color="#332F5F"/></linearGradient><linearGradient id="q" x1="225.5" y1="244.75" x2="225.5" y2="219" gradientUnits="userSpaceOnUse"><stop stop-color="#301F4D"/><stop offset="1" stop-color="#005C8C"/></linearGradient><linearGradient id="r" x1="231.89" y1="298.82" x2="231.89" y2="226.97" gradientUnits="userSpaceOnUse"><stop stop-color="#301F4D"/><stop offset="1" stop-color="#005C8C"/></linearGradient><linearGradient id="s" x1="112.25" y1="355.2" x2="146.17" y2="223.68" gradientUnits="userSpaceOnUse"><stop stop-color="#025582"/><stop offset="1" stop-color="#332F5F"/></linearGradient><linearGradient id="t" x1="50.77" y1="256.12" x2="50.77" y2="231.88" gradientUnits="userSpaceOnUse"><stop stop-color="#301F4D"/><stop offset="1" stop-color="#005C8C"/></linearGradient><linearGradient id="u" x1="32.6" y1="247.38" x2="0" y2="247.38" gradientUnits="userSpaceOnUse"><stop stop-color="#005C8C"/><stop offset=".51" stop-color="#015A8A"/><stop offset=".7" stop-color="#085484"/><stop offset=".83" stop-color="#144979"/><stop offset=".94" stop-color="#253B6B"/><stop offset="1" stop-color="#332F5F"/></linearGradient><linearGradient id="v" x1="58.52" y1="298.82" x2="58.52" y2="243.94" gradientUnits="userSpaceOnUse"><stop stop-color="#301F4D"/><stop offset="1" stop-color="#005C8C"/></linearGradient><clipPath id="a"><path fill="#fff" d="M0 219h1921v79.82H0z"/></clipPath></defs></svg>